<svg xmlns="http://www.w3.org/2000/svg" viewBox="0 0 1240 480" width="1240" height="480" role="img" xml:space="preserve">
<title>manycommander's quick view showing a picture next to the file list</title>
<style>text{font-family:"JetBrainsMono Nerd Font","JetBrains Mono",ui-monospace,"SF Mono",Menlo,Consolas,monospace;font-size:16px;white-space:pre;font-variant-ligatures:none}path{fill:none;stroke-width:1.2}.B{font-weight:700}.I{font-style:italic}.U{text-decoration:underline}.D{opacity:.6}.c0{fill:#7aa2f7}.s0{stroke:#7aa2f7}.c1{fill:#414868}.s1{stroke:#414868}.c2{fill:#262a58}.c3{fill:#b4bee6}.c4{fill:#c0caf5}.c5{fill:#423a74}.c6{fill:#413973}.c7{fill:#1a1b26}.c8{fill:#a9b1d6}.c9{fill:#764a80}.c10{fill:#7c5081}.c11{fill:#dfbc91}.c12{fill:#ffde96}.c13{fill:#e3c091}.c14{fill:#7e5281}.c15{fill:#72497f}.c16{fill:#734a7f}.c17{fill:#916b84}.c18{fill:#926c84}.c19{fill:#744b7f}.c20{fill:#caa58e}.c21{fill:#d0ab8e}.c22{fill:#b58e8a}.c23{fill:#bb948b}.c24{fill:#b86072}.c25{fill:#b96172}.c26{fill:#e1a987}.c27{fill:#fedc95}.c28{fill:#fedc96}.c29{fill:#e3ad88}.c30{fill:#b96273}.c31{fill:#c98a9b}.c32{fill:#ebe0ee}.c33{fill:#ece2f0}.c34{fill:#d09dad}.c35{fill:#af5d74}.c36{fill:#cf8f81}.c37{fill:#d39482}.c38{fill:#c1899f}.c39{fill:#c491a6}.c40{fill:#c78697}.c41{fill:#d8cee1}.c42{fill:#6a5d8f}.c43{fill:#65578b}.c44{fill:#cbc0d7}.c45{fill:#d8b1c1}.c46{fill:#b96173}.c47{fill:#c58192}.c48{fill:#e5d1df}.c49{fill:#e1c7d6}.c50{fill:#be6f80}.c51{fill:#bb6573}.c52{fill:#bb6574}.c53{fill:#d6cbdf}.c54{fill:#d1c6dc}.c55{fill:#d5a8b8}.c56{fill:#b86173}.c57{fill:#ba6577}.c58{fill:#cc93a3}.c59{fill:#b96476}.c60{fill:#e78b63}.c61{fill:#ec8e64}.c62{fill:#e48b66}.c63{fill:#926678}.c64{fill:#aa9ebf}.c65{fill:#e0d6e7}.c66{fill:#695481}.c67{fill:#af7372}.c68{fill:#e98d65}.c69{fill:#c47c6d}.c70{fill:#a394b5}.c71{fill:#dad0e3}.c72{fill:#6d5f91}.c73{fill:#5c4e84}.c74{fill:#5f5186}.c75{fill:#b9adc9}.c76{fill:#e6dcec}.c77{fill:#805e7c}.c78{fill:#e48a66}.c79{fill:#bc796f}.c80{fill:#705a86}.c81{fill:#e2d7e8}.c82{fill:#9286ad}.c83{fill:#5d4f85}.c84{fill:#9f93b6}.c85{fill:#eae0ee}.c86{fill:#a598ba}.c87{fill:#9f6c75}.c88{fill:#ea8d65}.c89{fill:#e58b66}.c90{fill:#b9776f}.c91{fill:#e18467}.c92{fill:#d9968d}.c93{fill:#e6d1df}.c94{fill:#deabaa}.c95{fill:#da8168}.c96{fill:#db968a}.c97{fill:#ebdeed}.c98{fill:#d9cfe2}.c99{fill:#625489}.c100{fill:#c4b8d2}.c101{fill:#e3bfc4}.c102{fill:#dd8368}.c103{fill:#da826a}.c104{fill:#e2b8bb}.c105{fill:#ece1ef}.c106{fill:#ddd2e5}.c107{fill:#e9d9e6}.c108{fill:#d9958a}.c109{fill:#2c284a}.c110{fill:#2d294b}.c111{fill:#3c355d}.c112{fill:#504475}.c113{fill:#7d5c7d}.c114{fill:#b17471}.c115{fill:#635183}.c116{fill:#584b7f}.c117{fill:#574a7e}.c118{fill:#453b68}.c119{fill:#312c50}.c120{fill:#2d294a}.c121{fill:#513c4f}.c122{fill:#845756}.c123{fill:#7f596b}.c124{fill:#615081}.c125{fill:#3c314c}.c126{fill:#895957}.c127{fill:#bd7767}.c128{fill:#6f5680}.c129{fill:#9b8fb3}.c130{fill:#968aaf}.c131{fill:#c1b6d0}.c132{fill:#705780}.c133{fill:#bd796e}.c134{fill:#c77e6c}.c135{fill:#615083}.c136{fill:#8e81aa}.c137{fill:#6e6192}.c138{fill:#a99ebe}.c139{fill:#785b7e}.c140{fill:#89627a}.c141{fill:#bdb2cd}.c142{fill:#695b8e}.c143{fill:#7f729e}.c144{fill:#968ab0}.c145{fill:#7e5d7b}.c146{fill:#b4715e}.c147{fill:#da8562}.c148{fill:#e68b65}.c149{fill:#bb786f}.c150{fill:#8a637a}.c151{fill:#2e2a4c}.c152{fill:#3f3761}.c153{fill:#534779}.c154{fill:#574a7d}.c155{fill:#493f6d}.c156{fill:#3c345d}.c157{fill:#2f2a4d}.c158{fill:#3b345c}.c159{fill:#493f6c}.c160{fill:#56497d}.c161{fill:#5b4d83}.c162{fill:#4c4170}.c163{fill:#373157}.c164{fill:#322d51}.c165{fill:#342e53}.c166{fill:#473e6b}.c167{fill:#594c80}.c168{fill:#514576}.c169{fill:#433a66}.c170{fill:#363055}.c171{fill:#352f55}.c172{fill:#423a65}.c173{fill:#504576}.c174{fill:#524678}.c175{fill:#3e365f}.c176{fill:#2d294c}.c177{fill:#2e2a4d}.c178{fill:#3a335b}.c179{fill:#483e6b}.c180{fill:#55487b}.c181{fill:#423964}.c182{fill:#594b80}.c183{fill:#463c69}.c184{fill:#1c192f}.c185{fill:#201c34}.c186{fill:#2a243f}.c187{fill:#28223d}.c188{fill:#1d1a30}.c189{fill:#23203b}.c190{fill:#1e1b32}.c191{fill:#1f1c33}.c192{fill:#292440}.c193{fill:#383052}.c194{fill:#3f355a}.c195{fill:#3e3458}.c196{fill:#362e4f}.c197{fill:#2c2643}.c198{fill:#221e37}.c199{fill:#2b2542}.c200{fill:#352e4e}.c201{fill:#3d3458}.c202{fill:#3e3459}.c203{fill:#322b4b}.c204{fill:#231f39}.c205{fill:#1e1b33}.c206{fill:#25203a}.c207{fill:#2f2846}.c208{fill:#221e36}.c209{fill:#242039}.c210{fill:#1d1a31}.c211{fill:#2d2643}.c212{fill:#352d4e}.c213{fill:#3c3356}.c214{fill:#382f50}.c215{fill:#2a2540}.c216{fill:#1f1b32}.c217{fill:#2c2338}.c218{fill:#312a49}.c219{fill:#443b5d}.c220{fill:#3d3457}.c221{fill:#473e5f}.c222{fill:#443756}.c223{fill:#6f4a4c}.c224{fill:#915945}.c225{fill:#4e3b53}.c226{fill:#42385b}.c227{fill:#433a5b}.c228{fill:#3e3558}.c229{fill:#453c5d}.c230{fill:#443b5c}.c231{fill:#372f50}.c232{fill:#29243f}.c233{fill:#231d32}.c234{fill:#3b2a35}.c235{fill:#5c3c39}.c236{fill:#7d4e3f}.c237{fill:#784e4a}.c238{fill:#5b4151}.c239{fill:#413556}.c240{fill:#201c33}.c241{fill:#2c2642}.c242{fill:#383051}.c243{fill:#3b3254}.c244{fill:#3d3354}.c245{fill:#372e4f}.c246{fill:#2e2744}.c247{fill:#252039}.c248{fill:#2d2744}.c249{fill:#362e4e}.c250{fill:#332b4a}.c251{fill:#26213a}.c252{fill:#28233d}.c253{fill:#312a48}.c254{fill:#393052}.c255{fill:#965a40}.c256{fill:#7e5045}.c257{fill:#766876}.c258{fill:#968f98}.c259{fill:#8f8892}.c260{fill:#5f424b}.c261{fill:#8d5641}.c262{fill:#8f5741}.c263{fill:#74646f}.c264{fill:#958f97}.c265{fill:#5b536c}.c266{fill:#3a3153}.c267{fill:#4a415f}.c268{fill:#8c8691}.c269{fill:#928c95}.c270{fill:#704948}.c271{fill:#905841}.c272{fill:#62454e}.c273{fill:#7e7786}.c274{fill:#524a65}.c275{fill:#847d8a}.c276{fill:#746673}.c277{fill:#845243}.c278{fill:#935940}.c279{fill:#57393a}.c280{fill:#8e5742}.c281{fill:#9f6045}.c282{fill:#6c4950}.c283{fill:#40365a}.c284{fill:#746c82}.c285{fill:#8c8594}.c286{fill:#98919d}.c287{fill:#433759}.c288{fill:#704b4f}.c289{fill:#9d5f46}.c290{fill:#a26145}.c291{fill:#9b5f46}.c292{fill:#523e56}.c293{fill:#6b637c}.c294{fill:#655c76}.c295{fill:#4b4163}.c296{fill:#908997}.c297{fill:#724c4f}.c298{fill:#84544b}.c299{fill:#483958}.c300{fill:#43395d}.c301{fill:#9c95a0}.c302{fill:#665d77}.c303{fill:#3f365a}.c304{fill:#42385c}.c305{fill:#7b7387}.c306{fill:#70687f}.c307{fill:#423659}.c308{fill:#7a504d}.c309{fill:#9e6045}.c310{fill:#85544b}.c311{fill:#614553}.c312{fill:#443759}.c313{fill:#7e414e}.c314{fill:#814955}.c315{fill:#9c8d97}.c316{fill:#a099a3}.c317{fill:#615873}.c318{fill:#5b526f}.c319{fill:#9d97a1}.c320{fill:#a098a1}.c321{fill:#885a65}.c322{fill:#804451}.c323{fill:#91717b}.c324{fill:#a198a2}.c325{fill:#8e6974}.c326{fill:#7f424e}.c327{fill:#8d5048}.c328{fill:#8d5550}.c329{fill:#90727c}.c330{fill:#8d5b5a}.c331{fill:#8d5652}.c332{fill:#998b94}.c333{fill:#9c969f}.c334{fill:#5c536f}.c335{fill:#504766}.c336{fill:#958e9a}.c337{fill:#9e969f}.c338{fill:#8f686c}.c339{fill:#8d6164}.c340{fill:#9a8d96}.c341{fill:#9e98a1}.c342{fill:#958089}.c343{fill:#8d5450}.c344{fill:#7d414d}.c345{fill:#81484f}.c346{fill:#a68962}.c347{fill:#ad9666}.c348{fill:#a78b63}.c349{fill:#824950}.c350{fill:#824c58}.c351{fill:#9c8e98}.c352{fill:#9d929b}.c353{fill:#85545f}.c354{fill:#733c47}.c355{fill:#764048}.c356{fill:#845a50}.c357{fill:#855a50}.c358{fill:#764148}.c359{fill:#77444f}.c360{fill:#8f828a}.c361{fill:#918b94}.c362{fill:#928991}.c363{fill:#7b4f59}.c364{fill:#75404b}.c365{fill:#492d4f}.c366{fill:#7c6557}.c367{fill:#9e895d}.c368{fill:#806858}.c369{fill:#663953}.c370{fill:#8d6b5d}.c371{fill:#af9867}.c372{fill:#906f5e}.c373{fill:#6a435c}.c374{fill:#6a455e}.c375{fill:#24283b}</style>
<rect width="1240" height="480" fill="#1a1b26"/>
<rect class="c2" x="680" y="20" width="500" height="20"/>
<rect class="c2" x="680" y="20" width="500" height="10"/>
<rect class="c2" x="680" y="40" width="500" height="20"/>
<rect class="c2" x="680" y="40" width="500" height="10"/>
<rect class="c0" x="10" y="60" width="600" height="20"/>
<rect class="c5" x="680" y="60" width="500" height="20"/>
<rect class="c6" x="680" y="60" width="500" height="10"/>
<rect class="c5" x="680" y="80" width="500" height="20"/>
<rect class="c5" x="680" y="80" width="500" height="10"/>
<rect class="c9" x="680" y="100" width="80" height="20"/>
<rect class="c10" x="760" y="100" width="10" height="20"/>
<rect class="c11" x="770" y="100" width="10" height="20"/>
<rect class="c12" x="780" y="100" width="20" height="20"/>
<rect class="c13" x="800" y="100" width="10" height="20"/>
<rect class="c14" x="810" y="100" width="10" height="20"/>
<rect class="c9" x="820" y="100" width="360" height="20"/>
<rect class="c15" x="680" y="100" width="90" height="10"/>
<rect class="c16" x="770" y="100" width="10" height="10"/>
<rect class="c17" x="780" y="100" width="10" height="10"/>
<rect class="c18" x="790" y="100" width="10" height="10"/>
<rect class="c19" x="800" y="100" width="10" height="10"/>
<rect class="c15" x="810" y="100" width="370" height="10"/>
<rect class="c9" x="680" y="120" width="80" height="20"/>
<rect class="c20" x="760" y="120" width="10" height="20"/>
<rect class="c12" x="770" y="120" width="40" height="20"/>
<rect class="c21" x="810" y="120" width="10" height="20"/>
<rect class="c9" x="820" y="120" width="360" height="20"/>
<rect class="c9" x="680" y="120" width="80" height="10"/>
<rect class="c22" x="760" y="120" width="10" height="10"/>
<rect class="c12" x="770" y="120" width="40" height="10"/>
<rect class="c23" x="810" y="120" width="10" height="10"/>
<rect class="c9" x="820" y="120" width="360" height="10"/>
<rect class="c24" x="680" y="140" width="80" height="20"/>
<rect class="c25" x="760" y="140" width="10" height="20"/>
<rect class="c26" x="770" y="140" width="10" height="20"/>
<rect class="c27" x="780" y="140" width="10" height="20"/>
<rect class="c28" x="790" y="140" width="10" height="20"/>
<rect class="c29" x="800" y="140" width="10" height="20"/>
<rect class="c30" x="810" y="140" width="10" height="20"/>
<rect class="c24" x="820" y="140" width="50" height="20"/>
<rect class="c31" x="870" y="140" width="10" height="20"/>
<rect class="c32" x="880" y="140" width="10" height="20"/>
<rect class="c33" x="890" y="140" width="10" height="20"/>
<rect class="c34" x="900" y="140" width="10" height="20"/>
<rect class="c24" x="910" y="140" width="270" height="20"/>
<rect class="c35" x="680" y="140" width="80" height="10"/>
<rect class="c36" x="760" y="140" width="10" height="10"/>
<rect class="c12" x="770" y="140" width="40" height="10"/>
<rect class="c37" x="810" y="140" width="10" height="10"/>
<rect class="c35" x="820" y="140" width="60" height="10"/>
<rect class="c38" x="880" y="140" width="10" height="10"/>
<rect class="c39" x="890" y="140" width="10" height="10"/>
<rect class="c35" x="900" y="140" width="280" height="10"/>
<rect class="c24" x="680" y="160" width="170" height="20"/>
<rect class="c40" x="850" y="160" width="10" height="20"/>
<rect class="c32" x="860" y="160" width="10" height="20"/>
<rect class="c41" x="870" y="160" width="10" height="20"/>
<rect class="c42" x="880" y="160" width="10" height="20"/>
<rect class="c43" x="890" y="160" width="10" height="20"/>
<rect class="c44" x="900" y="160" width="10" height="20"/>
<rect class="c33" x="910" y="160" width="10" height="20"/>
<rect class="c45" x="920" y="160" width="10" height="20"/>
<rect class="c46" x="930" y="160" width="10" height="20"/>
<rect class="c24" x="940" y="160" width="60" height="20"/>
<rect class="c47" x="1000" y="160" width="10" height="20"/>
<rect class="c48" x="1010" y="160" width="10" height="20"/>
<rect class="c33" x="1020" y="160" width="10" height="20"/>
<rect class="c49" x="1030" y="160" width="10" height="20"/>
<rect class="c50" x="1040" y="160" width="10" height="20"/>
<rect class="c24" x="1050" y="160" width="130" height="20"/>
<rect class="c24" x="680" y="160" width="100" height="10"/>
<rect class="c51" x="780" y="160" width="10" height="10"/>
<rect class="c52" x="790" y="160" width="10" height="10"/>
<rect class="c24" x="800" y="160" width="60" height="10"/>
<rect class="c31" x="860" y="160" width="10" height="10"/>
<rect class="c32" x="870" y="160" width="10" height="10"/>
<rect class="c53" x="880" y="160" width="10" height="10"/>
<rect class="c54" x="890" y="160" width="10" height="10"/>
<rect class="c33" x="900" y="160" width="10" height="10"/>
<rect class="c55" x="910" y="160" width="10" height="10"/>
<rect class="c56" x="920" y="160" width="10" height="10"/>
<rect class="c24" x="930" y="160" width="80" height="10"/>
<rect class="c57" x="1010" y="160" width="10" height="10"/>
<rect class="c58" x="1020" y="160" width="10" height="10"/>
<rect class="c59" x="1030" y="160" width="10" height="10"/>
<rect class="c24" x="1040" y="160" width="140" height="10"/>
<rect class="c60" x="680" y="180" width="10" height="20"/>
<rect class="c61" x="690" y="180" width="20" height="20"/>
<rect class="c62" x="710" y="180" width="10" height="20"/>
<rect class="c63" x="720" y="180" width="10" height="20"/>
<rect class="c64" x="730" y="180" width="10" height="20"/>
<rect class="c33" x="740" y="180" width="10" height="20"/>
<rect class="c65" x="750" y="180" width="10" height="20"/>
<rect class="c66" x="760" y="180" width="10" height="20"/>
<rect class="c67" x="770" y="180" width="10" height="20"/>
<rect class="c68" x="780" y="180" width="10" height="20"/>
<rect class="c61" x="790" y="180" width="40" height="20"/>
<rect class="c69" x="830" y="180" width="10" height="20"/>
<rect class="c70" x="840" y="180" width="10" height="20"/>
<rect class="c71" x="850" y="180" width="10" height="20"/>
<rect class="c72" x="860" y="180" width="10" height="20"/>
<rect class="c73" x="870" y="180" width="40" height="20"/>
<rect class="c74" x="910" y="180" width="10" height="20"/>
<rect class="c75" x="920" y="180" width="10" height="20"/>
<rect class="c76" x="930" y="180" width="10" height="20"/>
<rect class="c77" x="940" y="180" width="10" height="20"/>
<rect class="c78" x="950" y="180" width="10" height="20"/>
<rect class="c61" x="960" y="180" width="10" height="20"/>
<rect class="c79" x="970" y="180" width="10" height="20"/>
<rect class="c80" x="980" y="180" width="10" height="20"/>
<rect class="c33" x="990" y="180" width="10" height="20"/>
<rect class="c81" x="1000" y="180" width="10" height="20"/>
<rect class="c82" x="1010" y="180" width="10" height="20"/>
<rect class="c83" x="1020" y="180" width="10" height="20"/>
<rect class="c84" x="1030" y="180" width="10" height="20"/>
<rect class="c85" x="1040" y="180" width="10" height="20"/>
<rect class="c86" x="1050" y="180" width="10" height="20"/>
<rect class="c87" x="1060" y="180" width="10" height="20"/>
<rect class="c88" x="1070" y="180" width="10" height="20"/>
<rect class="c61" x="1080" y="180" width="80" height="20"/>
<rect class="c89" x="1160" y="180" width="10" height="20"/>
<rect class="c90" x="1170" y="180" width="10" height="20"/>
<rect class="c91" x="680" y="180" width="50" height="10"/>
<rect class="c92" x="730" y="180" width="10" height="10"/>
<rect class="c93" x="740" y="180" width="10" height="10"/>
<rect class="c94" x="750" y="180" width="10" height="10"/>
<rect class="c95" x="760" y="180" width="10" height="10"/>
<rect class="c91" x="770" y="180" width="70" height="10"/>
<rect class="c96" x="840" y="180" width="10" height="10"/>
<rect class="c97" x="850" y="180" width="10" height="10"/>
<rect class="c98" x="860" y="180" width="10" height="10"/>
<rect class="c72" x="870" y="180" width="10" height="10"/>
<rect class="c73" x="880" y="180" width="20" height="10"/>
<rect class="c99" x="900" y="180" width="10" height="10"/>
<rect class="c100" x="910" y="180" width="10" height="10"/>
<rect class="c33" x="920" y="180" width="10" height="10"/>
<rect class="c101" x="930" y="180" width="10" height="10"/>
<rect class="c102" x="940" y="180" width="10" height="10"/>
<rect class="c91" x="950" y="180" width="30" height="10"/>
<rect class="c103" x="980" y="180" width="10" height="10"/>
<rect class="c104" x="990" y="180" width="10" height="10"/>
<rect class="c105" x="1000" y="180" width="10" height="10"/>
<rect class="c33" x="1010" y="180" width="10" height="10"/>
<rect class="c106" x="1020" y="180" width="10" height="10"/>
<rect class="c33" x="1030" y="180" width="10" height="10"/>
<rect class="c107" x="1040" y="180" width="10" height="10"/>
<rect class="c108" x="1050" y="180" width="10" height="10"/>
<rect class="c91" x="1060" y="180" width="120" height="10"/>
<rect class="c109" x="680" y="200" width="20" height="20"/>
<rect class="c110" x="700" y="200" width="10" height="20"/>
<rect class="c111" x="710" y="200" width="10" height="20"/>
<rect class="c112" x="720" y="200" width="10" height="20"/>
<rect class="c73" x="730" y="200" width="70" height="20"/>
<rect class="c113" x="800" y="200" width="10" height="20"/>
<rect class="c114" x="810" y="200" width="10" height="20"/>
<rect class="c115" x="820" y="200" width="10" height="20"/>
<rect class="c73" x="830" y="200" width="20" height="20"/>
<rect class="c116" x="850" y="200" width="10" height="20"/>
<rect class="c117" x="860" y="200" width="10" height="20"/>
<rect class="c73" x="870" y="200" width="180" height="20"/>
<rect class="c116" x="1050" y="200" width="10" height="20"/>
<rect class="c118" x="1060" y="200" width="10" height="20"/>
<rect class="c119" x="1070" y="200" width="10" height="20"/>
<rect class="c109" x="1080" y="200" width="10" height="20"/>
<rect class="c120" x="1090" y="200" width="10" height="20"/>
<rect class="c121" x="1100" y="200" width="10" height="20"/>
<rect class="c122" x="1110" y="200" width="10" height="20"/>
<rect class="c123" x="1120" y="200" width="10" height="20"/>
<rect class="c124" x="1130" y="200" width="10" height="20"/>
<rect class="c73" x="1140" y="200" width="40" height="20"/>
<rect class="c125" x="680" y="200" width="10" height="10"/>
<rect class="c126" x="690" y="200" width="10" height="10"/>
<rect class="c127" x="700" y="200" width="10" height="10"/>
<rect class="c128" x="710" y="200" width="10" height="10"/>
<rect class="c73" x="720" y="200" width="10" height="10"/>
<rect class="c129" x="730" y="200" width="10" height="10"/>
<rect class="c130" x="740" y="200" width="10" height="10"/>
<rect class="c131" x="750" y="200" width="10" height="10"/>
<rect class="c73" x="760" y="200" width="20" height="10"/>
<rect class="c132" x="780" y="200" width="10" height="10"/>
<rect class="c133" x="790" y="200" width="10" height="10"/>
<rect class="c61" x="800" y="200" width="20" height="10"/>
<rect class="c134" x="820" y="200" width="10" height="10"/>
<rect class="c135" x="830" y="200" width="10" height="10"/>
<rect class="c136" x="840" y="200" width="10" height="10"/>
<rect class="c137" x="850" y="200" width="10" height="10"/>
<rect class="c73" x="860" y="200" width="60" height="10"/>
<rect class="c83" x="920" y="200" width="10" height="10"/>
<rect class="c138" x="930" y="200" width="10" height="10"/>
<rect class="c73" x="940" y="200" width="10" height="10"/>
<rect class="c139" x="950" y="200" width="10" height="10"/>
<rect class="c140" x="960" y="200" width="10" height="10"/>
<rect class="c73" x="970" y="200" width="10" height="10"/>
<rect class="c99" x="980" y="200" width="10" height="10"/>
<rect class="c141" x="990" y="200" width="10" height="10"/>
<rect class="c142" x="1000" y="200" width="10" height="10"/>
<rect class="c73" x="1010" y="200" width="30" height="10"/>
<rect class="c143" x="1040" y="200" width="10" height="10"/>
<rect class="c144" x="1050" y="200" width="10" height="10"/>
<rect class="c73" x="1060" y="200" width="10" height="10"/>
<rect class="c145" x="1070" y="200" width="10" height="10"/>
<rect class="c146" x="1080" y="200" width="10" height="10"/>
<rect class="c147" x="1090" y="200" width="10" height="10"/>
<rect class="c61" x="1100" y="200" width="30" height="10"/>
<rect class="c148" x="1130" y="200" width="10" height="10"/>
<rect class="c149" x="1140" y="200" width="10" height="10"/>
<rect class="c150" x="1150" y="200" width="10" height="10"/>
<rect class="c135" x="1160" y="200" width="10" height="10"/>
<rect class="c73" x="1170" y="200" width="10" height="10"/>
<rect class="c109" x="680" y="220" width="70" height="20"/>
<rect class="c151" x="750" y="220" width="10" height="20"/>
<rect class="c152" x="760" y="220" width="10" height="20"/>
<rect class="c153" x="770" y="220" width="10" height="20"/>
<rect class="c154" x="780" y="220" width="10" height="20"/>
<rect class="c155" x="790" y="220" width="10" height="20"/>
<rect class="c156" x="800" y="220" width="10" height="20"/>
<rect class="c157" x="810" y="220" width="10" height="20"/>
<rect class="c109" x="820" y="220" width="80" height="20"/>
<rect class="c157" x="900" y="220" width="10" height="20"/>
<rect class="c158" x="910" y="220" width="10" height="20"/>
<rect class="c159" x="920" y="220" width="10" height="20"/>
<rect class="c160" x="930" y="220" width="10" height="20"/>
<rect class="c73" x="940" y="220" width="60" height="20"/>
<rect class="c161" x="1000" y="220" width="10" height="20"/>
<rect class="c162" x="1010" y="220" width="10" height="20"/>
<rect class="c163" x="1020" y="220" width="10" height="20"/>
<rect class="c109" x="1030" y="220" width="140" height="20"/>
<rect class="c164" x="1170" y="220" width="10" height="20"/>
<rect class="c109" x="680" y="220" width="50" height="10"/>
<rect class="c165" x="730" y="220" width="10" height="10"/>
<rect class="c166" x="740" y="220" width="10" height="10"/>
<rect class="c167" x="750" y="220" width="10" height="10"/>
<rect class="c73" x="760" y="220" width="50" height="10"/>
<rect class="c161" x="810" y="220" width="10" height="10"/>
<rect class="c168" x="820" y="220" width="10" height="10"/>
<rect class="c169" x="830" y="220" width="10" height="10"/>
<rect class="c170" x="840" y="220" width="10" height="10"/>
<rect class="c109" x="850" y="220" width="20" height="10"/>
<rect class="c171" x="870" y="220" width="10" height="10"/>
<rect class="c172" x="880" y="220" width="10" height="10"/>
<rect class="c173" x="890" y="220" width="10" height="10"/>
<rect class="c161" x="900" y="220" width="10" height="10"/>
<rect class="c73" x="910" y="220" width="120" height="10"/>
<rect class="c174" x="1030" y="220" width="10" height="10"/>
<rect class="c175" x="1040" y="220" width="10" height="10"/>
<rect class="c176" x="1050" y="220" width="10" height="10"/>
<rect class="c109" x="1060" y="220" width="70" height="10"/>
<rect class="c177" x="1130" y="220" width="10" height="10"/>
<rect class="c178" x="1140" y="220" width="10" height="10"/>
<rect class="c179" x="1150" y="220" width="10" height="10"/>
<rect class="c180" x="1160" y="220" width="10" height="10"/>
<rect class="c73" x="1170" y="220" width="10" height="10"/>
<rect class="c109" x="680" y="240" width="290" height="20"/>
<rect class="c157" x="970" y="240" width="10" height="20"/>
<rect class="c177" x="980" y="240" width="10" height="20"/>
<rect class="c109" x="990" y="240" width="190" height="20"/>
<rect class="c109" x="680" y="240" width="260" height="10"/>
<rect class="c165" x="940" y="240" width="10" height="10"/>
<rect class="c181" x="950" y="240" width="10" height="10"/>
<rect class="c173" x="960" y="240" width="10" height="10"/>
<rect class="c161" x="970" y="240" width="10" height="10"/>
<rect class="c182" x="980" y="240" width="10" height="10"/>
<rect class="c183" x="990" y="240" width="10" height="10"/>
<rect class="c119" x="1000" y="240" width="10" height="10"/>
<rect class="c109" x="1010" y="240" width="170" height="10"/>
<rect class="c184" x="680" y="260" width="280" height="20"/>
<rect class="c185" x="960" y="260" width="10" height="20"/>
<rect class="c186" x="970" y="260" width="10" height="20"/>
<rect class="c187" x="980" y="260" width="10" height="20"/>
<rect class="c188" x="990" y="260" width="10" height="20"/>
<rect class="c184" x="1000" y="260" width="180" height="20"/>
<rect class="c189" x="680" y="260" width="500" height="10"/>
<rect class="c190" x="680" y="280" width="60" height="20"/>
<rect class="c191" x="740" y="280" width="10" height="20"/>
<rect class="c192" x="750" y="280" width="10" height="20"/>
<rect class="c193" x="760" y="280" width="10" height="20"/>
<rect class="c194" x="770" y="280" width="20" height="20"/>
<rect class="c195" x="790" y="280" width="10" height="20"/>
<rect class="c196" x="800" y="280" width="10" height="20"/>
<rect class="c197" x="810" y="280" width="10" height="20"/>
<rect class="c198" x="820" y="280" width="10" height="20"/>
<rect class="c190" x="830" y="280" width="60" height="20"/>
<rect class="c198" x="890" y="280" width="10" height="20"/>
<rect class="c199" x="900" y="280" width="10" height="20"/>
<rect class="c200" x="910" y="280" width="10" height="20"/>
<rect class="c201" x="920" y="280" width="10" height="20"/>
<rect class="c194" x="930" y="280" width="80" height="20"/>
<rect class="c202" x="1010" y="280" width="10" height="20"/>
<rect class="c203" x="1020" y="280" width="10" height="20"/>
<rect class="c204" x="1030" y="280" width="10" height="20"/>
<rect class="c190" x="1040" y="280" width="110" height="20"/>
<rect class="c205" x="1150" y="280" width="10" height="20"/>
<rect class="c206" x="1160" y="280" width="10" height="20"/>
<rect class="c207" x="1170" y="280" width="10" height="20"/>
<rect class="c188" x="680" y="280" width="90" height="10"/>
<rect class="c208" x="770" y="280" width="10" height="10"/>
<rect class="c209" x="780" y="280" width="10" height="10"/>
<rect class="c210" x="790" y="280" width="10" height="10"/>
<rect class="c188" x="800" y="280" width="120" height="10"/>
<rect class="c210" x="920" y="280" width="10" height="10"/>
<rect class="c209" x="930" y="280" width="10" height="10"/>
<rect class="c211" x="940" y="280" width="10" height="10"/>
<rect class="c212" x="950" y="280" width="10" height="10"/>
<rect class="c213" x="960" y="280" width="30" height="10"/>
<rect class="c214" x="990" y="280" width="10" height="10"/>
<rect class="c215" x="1000" y="280" width="10" height="10"/>
<rect class="c216" x="1010" y="280" width="10" height="10"/>
<rect class="c188" x="1020" y="280" width="160" height="10"/>
<rect class="c210" x="680" y="300" width="20" height="20"/>
<rect class="c217" x="700" y="300" width="10" height="20"/>
<rect class="c218" x="710" y="300" width="10" height="20"/>
<rect class="c213" x="720" y="300" width="10" height="20"/>
<rect class="c219" x="730" y="300" width="10" height="20"/>
<rect class="c220" x="740" y="300" width="10" height="20"/>
<rect class="c221" x="750" y="300" width="10" height="20"/>
<rect class="c220" x="760" y="300" width="30" height="20"/>
<rect class="c222" x="790" y="300" width="10" height="20"/>
<rect class="c223" x="800" y="300" width="10" height="20"/>
<rect class="c224" x="810" y="300" width="10" height="20"/>
<rect class="c225" x="820" y="300" width="10" height="20"/>
<rect class="c220" x="830" y="300" width="10" height="20"/>
<rect class="c226" x="840" y="300" width="10" height="20"/>
<rect class="c220" x="850" y="300" width="80" height="20"/>
<rect class="c227" x="930" y="300" width="10" height="20"/>
<rect class="c220" x="940" y="300" width="40" height="20"/>
<rect class="c228" x="980" y="300" width="10" height="20"/>
<rect class="c229" x="990" y="300" width="10" height="20"/>
<rect class="c220" x="1000" y="300" width="50" height="20"/>
<rect class="c230" x="1050" y="300" width="10" height="20"/>
<rect class="c231" x="1060" y="300" width="10" height="20"/>
<rect class="c232" x="1070" y="300" width="10" height="20"/>
<rect class="c233" x="1080" y="300" width="10" height="20"/>
<rect class="c234" x="1090" y="300" width="10" height="20"/>
<rect class="c235" x="1100" y="300" width="10" height="20"/>
<rect class="c236" x="1110" y="300" width="10" height="20"/>
<rect class="c237" x="1120" y="300" width="10" height="20"/>
<rect class="c238" x="1130" y="300" width="10" height="20"/>
<rect class="c239" x="1140" y="300" width="10" height="20"/>
<rect class="c220" x="1150" y="300" width="30" height="20"/>
<rect class="c184" x="680" y="300" width="40" height="10"/>
<rect class="c240" x="720" y="300" width="10" height="10"/>
<rect class="c241" x="730" y="300" width="10" height="10"/>
<rect class="c242" x="740" y="300" width="10" height="10"/>
<rect class="c243" x="750" y="300" width="60" height="10"/>
<rect class="c244" x="810" y="300" width="10" height="10"/>
<rect class="c243" x="820" y="300" width="10" height="10"/>
<rect class="c245" x="830" y="300" width="10" height="10"/>
<rect class="c246" x="840" y="300" width="10" height="10"/>
<rect class="c206" x="850" y="300" width="10" height="10"/>
<rect class="c247" x="860" y="300" width="10" height="10"/>
<rect class="c248" x="870" y="300" width="10" height="10"/>
<rect class="c249" x="880" y="300" width="10" height="10"/>
<rect class="c243" x="890" y="300" width="150" height="10"/>
<rect class="c250" x="1040" y="300" width="10" height="10"/>
<rect class="c251" x="1050" y="300" width="10" height="10"/>
<rect class="c184" x="1060" y="300" width="60" height="10"/>
<rect class="c191" x="1120" y="300" width="10" height="10"/>
<rect class="c252" x="1130" y="300" width="10" height="10"/>
<rect class="c253" x="1140" y="300" width="10" height="10"/>
<rect class="c254" x="1150" y="300" width="10" height="10"/>
<rect class="c243" x="1160" y="300" width="20" height="10"/>
<rect class="c255" x="680" y="320" width="40" height="20"/>
<rect class="c256" x="720" y="320" width="10" height="20"/>
<rect class="c257" x="730" y="320" width="10" height="20"/>
<rect class="c258" x="740" y="320" width="10" height="20"/>
<rect class="c259" x="750" y="320" width="10" height="20"/>
<rect class="c260" x="760" y="320" width="10" height="20"/>
<rect class="c261" x="770" y="320" width="10" height="20"/>
<rect class="c255" x="780" y="320" width="50" height="20"/>
<rect class="c262" x="830" y="320" width="10" height="20"/>
<rect class="c263" x="840" y="320" width="10" height="20"/>
<rect class="c264" x="850" y="320" width="10" height="20"/>
<rect class="c265" x="860" y="320" width="10" height="20"/>
<rect class="c266" x="870" y="320" width="40" height="20"/>
<rect class="c267" x="910" y="320" width="10" height="20"/>
<rect class="c268" x="920" y="320" width="10" height="20"/>
<rect class="c269" x="930" y="320" width="10" height="20"/>
<rect class="c270" x="940" y="320" width="10" height="20"/>
<rect class="c255" x="950" y="320" width="20" height="20"/>
<rect class="c271" x="970" y="320" width="10" height="20"/>
<rect class="c272" x="980" y="320" width="10" height="20"/>
<rect class="c258" x="990" y="320" width="20" height="20"/>
<rect class="c273" x="1010" y="320" width="10" height="20"/>
<rect class="c274" x="1020" y="320" width="10" height="20"/>
<rect class="c275" x="1030" y="320" width="10" height="20"/>
<rect class="c258" x="1040" y="320" width="10" height="20"/>
<rect class="c276" x="1050" y="320" width="10" height="20"/>
<rect class="c277" x="1060" y="320" width="10" height="20"/>
<rect class="c255" x="1070" y="320" width="100" height="20"/>
<rect class="c278" x="1170" y="320" width="10" height="20"/>
<rect class="c279" x="680" y="320" width="10" height="10"/>
<rect class="c280" x="690" y="320" width="10" height="10"/>
<rect class="c281" x="700" y="320" width="10" height="10"/>
<rect class="c282" x="710" y="320" width="10" height="10"/>
<rect class="c283" x="720" y="320" width="10" height="10"/>
<rect class="c284" x="730" y="320" width="10" height="10"/>
<rect class="c285" x="740" y="320" width="10" height="10"/>
<rect class="c286" x="750" y="320" width="10" height="10"/>
<rect class="c194" x="760" y="320" width="10" height="10"/>
<rect class="c287" x="770" y="320" width="10" height="10"/>
<rect class="c288" x="780" y="320" width="10" height="10"/>
<rect class="c289" x="790" y="320" width="10" height="10"/>
<rect class="c290" x="800" y="320" width="20" height="10"/>
<rect class="c291" x="820" y="320" width="10" height="10"/>
<rect class="c292" x="830" y="320" width="10" height="10"/>
<rect class="c293" x="840" y="320" width="10" height="10"/>
<rect class="c294" x="850" y="320" width="10" height="10"/>
<rect class="c194" x="860" y="320" width="60" height="10"/>
<rect class="c295" x="920" y="320" width="10" height="10"/>
<rect class="c296" x="930" y="320" width="10" height="10"/>
<rect class="c194" x="940" y="320" width="10" height="10"/>
<rect class="c297" x="950" y="320" width="10" height="10"/>
<rect class="c298" x="960" y="320" width="10" height="10"/>
<rect class="c299" x="970" y="320" width="10" height="10"/>
<rect class="c300" x="980" y="320" width="10" height="10"/>
<rect class="c301" x="990" y="320" width="10" height="10"/>
<rect class="c302" x="1000" y="320" width="10" height="10"/>
<rect class="c303" x="1010" y="320" width="10" height="10"/>
<rect class="c194" x="1020" y="320" width="10" height="10"/>
<rect class="c304" x="1030" y="320" width="10" height="10"/>
<rect class="c305" x="1040" y="320" width="10" height="10"/>
<rect class="c306" x="1050" y="320" width="10" height="10"/>
<rect class="c307" x="1060" y="320" width="10" height="10"/>
<rect class="c308" x="1070" y="320" width="10" height="10"/>
<rect class="c290" x="1080" y="320" width="60" height="10"/>
<rect class="c309" x="1140" y="320" width="10" height="10"/>
<rect class="c310" x="1150" y="320" width="10" height="10"/>
<rect class="c311" x="1160" y="320" width="10" height="10"/>
<rect class="c312" x="1170" y="320" width="10" height="10"/>
<rect class="c313" x="680" y="340" width="170" height="20"/>
<rect class="c314" x="850" y="340" width="10" height="20"/>
<rect class="c315" x="860" y="340" width="10" height="20"/>
<rect class="c316" x="870" y="340" width="10" height="20"/>
<rect class="c317" x="880" y="340" width="10" height="20"/>
<rect class="c318" x="890" y="340" width="10" height="20"/>
<rect class="c319" x="900" y="340" width="10" height="20"/>
<rect class="c320" x="910" y="340" width="10" height="20"/>
<rect class="c321" x="920" y="340" width="10" height="20"/>
<rect class="c313" x="930" y="340" width="70" height="20"/>
<rect class="c322" x="1000" y="340" width="10" height="20"/>
<rect class="c323" x="1010" y="340" width="10" height="20"/>
<rect class="c324" x="1020" y="340" width="10" height="20"/>
<rect class="c325" x="1030" y="340" width="10" height="20"/>
<rect class="c326" x="1040" y="340" width="10" height="20"/>
<rect class="c313" x="1050" y="340" width="130" height="20"/>
<rect class="c327" x="680" y="340" width="50" height="10"/>
<rect class="c328" x="730" y="340" width="10" height="10"/>
<rect class="c329" x="740" y="340" width="10" height="10"/>
<rect class="c330" x="750" y="340" width="10" height="10"/>
<rect class="c327" x="760" y="340" width="80" height="10"/>
<rect class="c331" x="840" y="340" width="10" height="10"/>
<rect class="c332" x="850" y="340" width="10" height="10"/>
<rect class="c333" x="860" y="340" width="10" height="10"/>
<rect class="c334" x="870" y="340" width="10" height="10"/>
<rect class="c195" x="880" y="340" width="20" height="10"/>
<rect class="c335" x="900" y="340" width="10" height="10"/>
<rect class="c336" x="910" y="340" width="10" height="10"/>
<rect class="c337" x="920" y="340" width="10" height="10"/>
<rect class="c338" x="930" y="340" width="10" height="10"/>
<rect class="c327" x="940" y="340" width="50" height="10"/>
<rect class="c339" x="990" y="340" width="10" height="10"/>
<rect class="c340" x="1000" y="340" width="10" height="10"/>
<rect class="c341" x="1010" y="340" width="30" height="10"/>
<rect class="c342" x="1040" y="340" width="10" height="10"/>
<rect class="c343" x="1050" y="340" width="10" height="10"/>
<rect class="c327" x="1060" y="340" width="120" height="10"/>
<rect class="c344" x="680" y="360" width="80" height="20"/>
<rect class="c345" x="760" y="360" width="10" height="20"/>
<rect class="c346" x="770" y="360" width="10" height="20"/>
<rect class="c347" x="780" y="360" width="20" height="20"/>
<rect class="c348" x="800" y="360" width="10" height="20"/>
<rect class="c349" x="810" y="360" width="10" height="20"/>
<rect class="c344" x="820" y="360" width="50" height="20"/>
<rect class="c350" x="870" y="360" width="10" height="20"/>
<rect class="c351" x="880" y="360" width="10" height="20"/>
<rect class="c352" x="890" y="360" width="10" height="20"/>
<rect class="c353" x="900" y="360" width="10" height="20"/>
<rect class="c344" x="910" y="360" width="270" height="20"/>
<rect class="c354" x="680" y="360" width="90" height="10"/>
<rect class="c355" x="770" y="360" width="10" height="10"/>
<rect class="c356" x="780" y="360" width="10" height="10"/>
<rect class="c357" x="790" y="360" width="10" height="10"/>
<rect class="c358" x="800" y="360" width="10" height="10"/>
<rect class="c354" x="810" y="360" width="50" height="10"/>
<rect class="c359" x="860" y="360" width="10" height="10"/>
<rect class="c360" x="870" y="360" width="10" height="10"/>
<rect class="c269" x="880" y="360" width="10" height="10"/>
<rect class="c361" x="890" y="360" width="10" height="10"/>
<rect class="c362" x="900" y="360" width="10" height="10"/>
<rect class="c363" x="910" y="360" width="10" height="10"/>
<rect class="c354" x="920" y="360" width="100" height="10"/>
<rect class="c364" x="1020" y="360" width="10" height="10"/>
<rect class="c354" x="1030" y="360" width="150" height="10"/>
<rect class="c365" x="680" y="380" width="80" height="20"/>
<rect class="c366" x="760" y="380" width="10" height="20"/>
<rect class="c367" x="770" y="380" width="40" height="20"/>
<rect class="c368" x="810" y="380" width="10" height="20"/>
<rect class="c365" x="820" y="380" width="360" height="20"/>
<rect class="c369" x="680" y="380" width="80" height="10"/>
<rect class="c370" x="760" y="380" width="10" height="10"/>
<rect class="c371" x="770" y="380" width="40" height="10"/>
<rect class="c372" x="810" y="380" width="10" height="10"/>
<rect class="c369" x="820" y="380" width="60" height="10"/>
<rect class="c373" x="880" y="380" width="10" height="10"/>
<rect class="c374" x="890" y="380" width="10" height="10"/>
<rect class="c369" x="900" y="380" width="280" height="10"/>
<rect class="c375" x="10" y="460" width="110" height="20"/>
<rect class="c375" x="130" y="460" width="110" height="20"/>
<rect class="c375" x="250" y="460" width="110" height="20"/>
<rect class="c375" x="370" y="460" width="110" height="20"/>
<rect class="c375" x="490" y="460" width="110" height="20"/>
<rect class="c375" x="610" y="460" width="110" height="20"/>
<rect class="c375" x="730" y="460" width="110" height="20"/>
<rect class="c375" x="850" y="460" width="110" height="20"/>
<rect class="c375" x="970" y="460" width="110" height="20"/>
<rect class="c375" x="1100" y="460" width="140" height="20"/>
<rect class="c8" x="310" y="440" width="10" height="20"/>
<path class="s0" d="M5 10H10M320 10H615M5 430H10M250 430H615M5 10V430M615 10V430"/>
<path class="s1" d="M625 10H630M890 10H1235M625 430H630M940 430H1235M625 10V430M1235 10V430"/>
<text class="c0" x="20" y="15" textLength="290" lengthAdjust="spacingAndGlyphs">/home/you/Pictures/wallpapers</text>
<text class="c1" x="640" y="15" textLength="240" lengthAdjust="spacingAndGlyphs">other panel: ~/Documents</text>
<text class="c3" x="10" y="35" textLength="520" lengthAdjust="spacingAndGlyphs">Name                       Ext         Size Modified</text>
<text class="c4 B" x="20" y="55" textLength="20" lengthAdjust="spacingAndGlyphs">..</text>
<text class="c3" x="400" y="55" textLength="40" lengthAdjust="spacingAndGlyphs">&lt;UP&gt;</text>
<text class="c7" x="20" y="75" textLength="590" lengthAdjust="spacingAndGlyphs">alpine-lake               png      1184322 2026-09-20 21:14</text>
<text class="c8" x="20" y="95" textLength="60" lengthAdjust="spacingAndGlyphs">aurora</text>
<text class="c3" x="280" y="95" textLength="330" lengthAdjust="spacingAndGlyphs">jpg      2873105 2026-09-20 21:09</text>
<text class="c8" x="20" y="115" textLength="120" lengthAdjust="spacingAndGlyphs">desert-dunes</text>
<text class="c3" x="280" y="115" textLength="330" lengthAdjust="spacingAndGlyphs">jpg      3412760 2026-09-18 22:37</text>
<text class="c8" x="20" y="135" textLength="100" lengthAdjust="spacingAndGlyphs">forest-fog</text>
<text class="c3" x="280" y="135" textLength="330" lengthAdjust="spacingAndGlyphs">jpg      2190338 2026-09-18 22:31</text>
<text class="c8" x="20" y="155" textLength="130" lengthAdjust="spacingAndGlyphs">harbour-night</text>
<text class="c3" x="280" y="155" textLength="330" lengthAdjust="spacingAndGlyphs">png      4051229 2026-09-16 20:02</text>
<text class="c8" x="20" y="175" textLength="90" lengthAdjust="spacingAndGlyphs">mountains</text>
<text class="c3" x="280" y="175" textLength="330" lengthAdjust="spacingAndGlyphs">jpg      5872014 2026-09-21 18:03</text>
<text class="c0" x="20" y="435" textLength="220" lengthAdjust="spacingAndGlyphs">6 entries, 312.0G free</text>
<text class="c1" x="640" y="435" textLength="290" lengthAdjust="spacingAndGlyphs">alpine-lake.png 1200 x 900 px</text>
<text class="c0" x="0" y="455" textLength="300" lengthAdjust="spacingAndGlyphs">/home/you/Pictures/wallpapers$</text>
<text class="c0" x="0" y="475" textLength="10" lengthAdjust="spacingAndGlyphs">1</text>
<text class="c8" x="10" y="475" textLength="40" lengthAdjust="spacingAndGlyphs">Help</text>
<text class="c0" x="120" y="475" textLength="10" lengthAdjust="spacingAndGlyphs">2</text>
<text class="c0" x="240" y="475" textLength="10" lengthAdjust="spacingAndGlyphs">3</text>
<text class="c8" x="250" y="475" textLength="40" lengthAdjust="spacingAndGlyphs">View</text>
<text class="c0" x="360" y="475" textLength="10" lengthAdjust="spacingAndGlyphs">4</text>
<text class="c8" x="370" y="475" textLength="40" lengthAdjust="spacingAndGlyphs">Edit</text>
<text class="c0" x="480" y="475" textLength="10" lengthAdjust="spacingAndGlyphs">5</text>
<text class="c8" x="490" y="475" textLength="40" lengthAdjust="spacingAndGlyphs">Copy</text>
<text class="c0" x="600" y="475" textLength="10" lengthAdjust="spacingAndGlyphs">6</text>
<text class="c8" x="610" y="475" textLength="40" lengthAdjust="spacingAndGlyphs">Move</text>
<text class="c0" x="720" y="475" textLength="10" lengthAdjust="spacingAndGlyphs">7</text>
<text class="c8" x="730" y="475" textLength="50" lengthAdjust="spacingAndGlyphs">Mkdir</text>
<text class="c0" x="840" y="475" textLength="10" lengthAdjust="spacingAndGlyphs">8</text>
<text class="c8" x="850" y="475" textLength="50" lengthAdjust="spacingAndGlyphs">Trash</text>
<text class="c0" x="960" y="475" textLength="10" lengthAdjust="spacingAndGlyphs">9</text>
<text class="c0" x="1080" y="475" textLength="20" lengthAdjust="spacingAndGlyphs">10</text>
<text class="c8" x="1100" y="475" textLength="40" lengthAdjust="spacingAndGlyphs">Quit</text>
</svg>
